<svg width="18" height="18" viewBox="0 0 18 18" fill="none" xmlns="http://www.w3.org/2000/svg">
<path d="M16.6519 3.10352H1.34807C0.603527 3.10352 0 3.70704 0 4.45158V13.5486C0 14.2931 0.603527 14.8966 1.34807 14.8966H16.6519C17.3964 14.8966 18 14.2931 18 13.5486V4.45158C18 3.70704 17.3965 3.10352 16.6519 3.10352Z" fill="#41479B"/>
<path d="M17.9813 4.22876C17.8751 3.59036 17.3205 3.10352 16.6519 3.10352H16.3012L10.5517 6.8704V3.10355H7.44827V6.87044L1.69882 3.10355H1.34807C0.6795 3.10355 0.12491 3.59036 0.018668 4.2288L4.93274 7.44841H0V10.5519H4.93274L0.018668 13.7714C0.12491 14.4098 0.6795 14.8966 1.34807 14.8966H1.69882L7.44827 11.1298V14.8966H10.5517V11.1298L16.3012 14.8966H16.6519C17.3205 14.8966 17.8751 14.4098 17.9813 13.7714L13.0673 10.5518H18V7.44834H13.0673L17.9813 4.22876Z" fill="#F5F5F5"/>
<path d="M9.93104 3.10352H8.06896V8.06902H0V9.93111H8.06896V14.8966H9.93104V9.93111H18V8.06902H9.93104V3.10352Z" fill="#FF4B55"/>
<path d="M0.872055 14.8097L7.43161 10.5518H6.29157L0.324707 14.425C0.470711 14.5954 0.65834 14.7289 0.872055 14.8097Z" fill="#FF4B55"/>
<path d="M12.1776 10.5518H11.0376L17.3909 14.6758C17.5687 14.559 17.717 14.4013 17.8229 14.2161L12.1776 10.5518Z" fill="#FF4B55"/>
<path d="M0.142578 3.84891L5.68777 7.44846H6.82782L0.544273 3.36963C0.375559 3.49521 0.2375 3.65939 0.142578 3.84891Z" fill="#FF4B55"/>
<path d="M11.6913 7.44845L17.6691 3.56808C17.5215 3.39824 17.3324 3.26549 17.1172 3.18628L10.5513 7.44845H11.6913Z" fill="#FF4B55"/>
</svg>
