<svg width="32" height="32" viewBox="0 0 32 32" fill="none" xmlns="http://www.w3.org/2000/svg">
<path d="M16 0C7.2 0 0 7.2 0 16C0 24.8 7.2 32 16 32C24.8 32 32 24.8 32 16C32 7.2 24.8 0 16 0Z" fill="#1D75BC"/>
<path d="M6.3999 14.5H14.0999L13.0999 17.5H5.3999L6.3999 14.5ZM26.4999 12.7L24.2999 19.3C23.6999 21.1 21.9999 22.3 20.0999 22.3H5.7999L7.0999 19L19.8999 19.1L21.9999 12.8H8.9999L9.9999 9.69995H24.3999C25.5999 9.69995 26.6999 10.7 26.6999 11.9C26.5999 12.2 26.5999 12.4 26.4999 12.7Z" fill="white"/>
</svg>
